<svg width="75" height="74" viewBox="0 0 75 74" fill="none" xmlns="http://www.w3.org/2000/svg">
<mask id="path-1-outside-1_2928_33607" maskUnits="userSpaceOnUse" x="0" y="-0.845703" width="75" height="75" fill="black">
<rect fill="white" y="-0.845703" width="75" height="75"/>
<path fill-rule="evenodd" clip-rule="evenodd" d="M42.1015 1.29751C43.2426 0.898273 44.4885 1.35824 45.1217 2.37247C48.223 7.33944 49.9474 12.74 50.6259 17.9266C56.8753 15.4587 63.0957 14.9674 67.2002 15.2356C68.4066 15.3144 69.3734 16.2249 69.5595 17.406C70.8718 25.73 69.2085 33.7654 66.2321 40.1214C65.7879 41.0699 66.2179 42.2234 67.173 42.6467C69.3099 43.5938 71.1471 44.6282 72.5943 45.5948C73.5996 46.2663 73.9814 47.5378 73.5521 48.6538C70.7395 55.9652 65.8248 61.7745 60.5244 65.7819C55.235 69.7809 49.5106 72.0227 45.0486 72.1274C45.0172 72.1281 44.9866 72.1263 44.9567 72.1221C40.1615 72.4481 34.6825 70.2901 30.3813 65.9889C29.1487 64.7563 28.0934 63.4286 27.2222 62.0492C26.8176 61.8674 26.4217 61.6756 26.0348 61.4744C24.2619 64.3142 22.5723 67.1853 20.9285 70.0725C20.8232 70.2573 20.6275 70.3584 20.4288 70.3516C20.4019 70.3524 20.3746 70.3513 20.3471 70.3481C20.0439 70.3128 19.8267 70.0384 19.8619 69.7352C20.292 66.037 20.7833 62.3299 21.3927 58.6136C21.3368 58.604 21.2805 58.5967 21.2237 58.5919C19.0914 58.4123 16.8886 57.8976 14.7186 57.0218C14.3213 56.8615 13.9315 56.6916 13.5496 56.5128C14.6084 55.3347 14.5731 53.4554 13.4177 52.1691C12.9815 51.6835 12.4441 51.3475 11.875 51.1674C12.09 50.558 12.2068 49.9039 12.2068 49.2231C12.2068 45.9326 9.47872 43.2652 6.11349 43.2652C4.88046 43.2652 3.73297 43.6233 2.77387 44.239C1.66879 40.2005 1.71501 34.8085 3.12105 29.1984C4.73645 22.7529 8.1611 15.9578 13.7903 10.5099C14.6495 9.67832 15.9694 9.53268 16.9805 10.1953C18.4519 11.1597 20.1429 12.4637 21.8697 14.0843C22.6823 14.8469 24.0263 14.7336 24.7148 13.8421C30.0266 6.9632 37.3171 2.97142 42.1015 1.29751ZM22.428 59.1336C21.9891 61.8422 21.6119 64.5482 21.2744 67.2521C22.5021 65.137 23.7607 63.031 25.0651 60.94C24.1238 60.3909 23.2426 59.7853 22.428 59.1336Z"/>
</mask>
<path fill-rule="evenodd" clip-rule="evenodd" d="M42.1015 1.29751C43.2426 0.898273 44.4885 1.35824 45.1217 2.37247C48.223 7.33944 49.9474 12.74 50.6259 17.9266C56.8753 15.4587 63.0957 14.9674 67.2002 15.2356C68.4066 15.3144 69.3734 16.2249 69.5595 17.406C70.8718 25.73 69.2085 33.7654 66.2321 40.1214C65.7879 41.0699 66.2179 42.2234 67.173 42.6467C69.3099 43.5938 71.1471 44.6282 72.5943 45.5948C73.5996 46.2663 73.9814 47.5378 73.5521 48.6538C70.7395 55.9652 65.8248 61.7745 60.5244 65.7819C55.235 69.7809 49.5106 72.0227 45.0486 72.1274C45.0172 72.1281 44.9866 72.1263 44.9567 72.1221C40.1615 72.4481 34.6825 70.2901 30.3813 65.9889C29.1487 64.7563 28.0934 63.4286 27.2222 62.0492C26.8176 61.8674 26.4217 61.6756 26.0348 61.4744C24.2619 64.3142 22.5723 67.1853 20.9285 70.0725C20.8232 70.2573 20.6275 70.3584 20.4288 70.3516C20.4019 70.3524 20.3746 70.3513 20.3471 70.3481C20.0439 70.3128 19.8267 70.0384 19.8619 69.7352C20.292 66.037 20.7833 62.3299 21.3927 58.6136C21.3368 58.604 21.2805 58.5967 21.2237 58.5919C19.0914 58.4123 16.8886 57.8976 14.7186 57.0218C14.3213 56.8615 13.9315 56.6916 13.5496 56.5128C14.6084 55.3347 14.5731 53.4554 13.4177 52.1691C12.9815 51.6835 12.4441 51.3475 11.875 51.1674C12.09 50.558 12.2068 49.9039 12.2068 49.2231C12.2068 45.9326 9.47872 43.2652 6.11349 43.2652C4.88046 43.2652 3.73297 43.6233 2.77387 44.239C1.66879 40.2005 1.71501 34.8085 3.12105 29.1984C4.73645 22.7529 8.1611 15.9578 13.7903 10.5099C14.6495 9.67832 15.9694 9.53268 16.9805 10.1953C18.4519 11.1597 20.1429 12.4637 21.8697 14.0843C22.6823 14.8469 24.0263 14.7336 24.7148 13.8421C30.0266 6.9632 37.3171 2.97142 42.1015 1.29751ZM22.428 59.1336C21.9891 61.8422 21.6119 64.5482 21.2744 67.2521C22.5021 65.137 23.7607 63.031 25.0651 60.94C24.1238 60.3909 23.2426 59.7853 22.428 59.1336Z" fill="#07503E"/>
<path d="M45.1217 2.37247L46.0594 1.787V1.787L45.1217 2.37247ZM42.1015 1.29751L41.7364 0.254077L41.7364 0.254078L42.1015 1.29751ZM50.6259 17.9266L49.5298 18.07C49.5739 18.4077 49.7714 18.7062 50.0648 18.8791C50.3583 19.052 50.7151 19.0799 51.0319 18.9548L50.6259 17.9266ZM67.2002 15.2356L67.2723 14.1325L67.2002 15.2356ZM69.5595 17.406L68.4676 17.5782V17.5782L69.5595 17.406ZM66.2321 40.1214L65.231 39.6526L66.2321 40.1214ZM67.173 42.6467L66.7251 43.6574H66.7251L67.173 42.6467ZM72.5943 45.5948L71.9803 46.5141L71.9803 46.5141L72.5943 45.5948ZM73.5521 48.6538L74.5838 49.0507L74.5838 49.0507L73.5521 48.6538ZM60.5244 65.7819L61.1911 66.6637L60.5244 65.7819ZM45.0486 72.1274L45.0744 73.2325L45.0745 73.2325L45.0486 72.1274ZM44.9567 72.1221L45.1091 71.0272C45.0338 71.0167 44.9576 71.0141 44.8818 71.0192L44.9567 72.1221ZM30.3813 65.9889L31.163 65.2072L30.3813 65.9889ZM27.2222 62.0492L28.1569 61.4589C28.0409 61.2754 27.8735 61.13 27.6755 61.041L27.2222 62.0492ZM26.0348 61.4744L26.5447 60.4936C26.0329 60.2275 25.4025 60.3997 25.0971 60.889L26.0348 61.4744ZM20.9285 70.0725L19.9678 69.5256V69.5256L20.9285 70.0725ZM20.4288 70.3516L20.4665 69.2467C20.4426 69.2459 20.4186 69.2459 20.3946 69.2466L20.4288 70.3516ZM20.3471 70.3481L20.2194 71.4461L20.2195 71.4461L20.3471 70.3481ZM19.8619 69.7352L18.7639 69.6075L19.8619 69.7352ZM21.3927 58.6136L22.4835 58.7925C22.5817 58.1939 22.1791 57.6279 21.5813 57.5244L21.3927 58.6136ZM21.2237 58.5919L21.1309 59.6935H21.1309L21.2237 58.5919ZM14.7186 57.0218L15.1323 55.9967H15.1323L14.7186 57.0218ZM13.5496 56.5128L12.7274 55.7738C12.4935 56.0341 12.3966 56.3898 12.4662 56.7327C12.5359 57.0757 12.7638 57.3654 13.0808 57.5139L13.5496 56.5128ZM13.4177 52.1691L14.2401 51.4304H14.2401L13.4177 52.1691ZM11.875 51.1674L10.8325 50.7995C10.7329 51.0819 10.752 51.3926 10.8856 51.6606C11.0192 51.9286 11.2559 52.1309 11.5413 52.2213L11.875 51.1674ZM2.77387 44.239L1.70761 44.5307C1.80046 44.87 2.04928 45.1449 2.37771 45.271C2.70615 45.3971 3.07498 45.3593 3.37103 45.1692L2.77387 44.239ZM3.12105 29.1984L2.04876 28.9296L2.04876 28.9296L3.12105 29.1984ZM13.7903 10.5099L14.5591 11.3043L13.7903 10.5099ZM16.9805 10.1953L17.5865 9.27076L17.5865 9.27076L16.9805 10.1953ZM21.8697 14.0843L22.6262 13.2782L22.6262 13.2782L21.8697 14.0843ZM24.7148 13.8421L25.5897 14.5177L25.5897 14.5177L24.7148 13.8421ZM21.2744 67.2521L20.1774 67.1152C20.1123 67.6366 20.4233 68.1319 20.9213 68.2997C21.4193 68.4675 21.9666 68.2616 22.2304 67.8071L21.2744 67.2521ZM22.428 59.1336L23.1186 58.2704C22.8117 58.0248 22.3975 57.9607 22.0307 58.102C21.6639 58.2433 21.3997 58.5687 21.3368 58.9567L22.428 59.1336ZM25.0651 60.94L26.003 61.5251C26.1612 61.2716 26.21 60.9647 26.1382 60.6746C26.0665 60.3845 25.8803 60.1358 25.6222 59.9852L25.0651 60.94ZM46.0594 1.787C45.1597 0.346095 43.3785 -0.320416 41.7364 0.254077L42.4666 2.34095C43.1068 2.11696 43.8172 2.37038 44.1841 2.95794L46.0594 1.787ZM51.722 17.7832C51.0254 12.458 49.2538 6.90313 46.0594 1.787L44.1841 2.95794C47.1922 7.77575 48.8695 13.0221 49.5298 18.07L51.722 17.7832ZM67.2723 14.1325C63.0309 13.8554 56.6438 14.3616 50.2198 16.8984L51.0319 18.9548C57.1068 16.5558 63.1604 16.0794 67.1282 16.3387L67.2723 14.1325ZM70.6515 17.2339C70.387 15.5559 69.0082 14.2459 67.2723 14.1325L67.1282 16.3387C67.805 16.3829 68.3597 16.8939 68.4676 17.5782L70.6515 17.2339ZM67.2332 40.5902C70.2896 34.0634 72.0028 25.8054 70.6515 17.2339L68.4676 17.5782C69.7408 25.6547 68.1274 33.4674 65.231 39.6526L67.2332 40.5902ZM67.621 41.6361C67.2344 41.4647 67.0508 40.9797 67.2332 40.5902L65.231 39.6526C64.5251 41.16 65.2015 42.9821 66.7251 43.6574L67.621 41.6361ZM73.2082 44.6755C71.707 43.6728 69.8141 42.6081 67.621 41.6361L66.7251 43.6574C68.8058 44.5796 70.5872 45.5836 71.9803 46.5141L73.2082 44.6755ZM74.5838 49.0507C75.1937 47.4653 74.6549 45.6418 73.2082 44.6755L71.9803 46.5141C72.5443 46.8908 72.769 47.6103 72.5203 48.2569L74.5838 49.0507ZM61.1911 66.6637C66.6327 62.5495 71.6873 56.5802 74.5838 49.0507L72.5203 48.2569C69.7916 55.3502 65.0169 60.9994 59.8577 64.9001L61.1911 66.6637ZM45.0745 73.2325C49.8389 73.1207 55.7825 70.7528 61.1911 66.6637L59.8577 64.9001C54.6875 68.809 49.1823 70.9246 45.0227 71.0222L45.0745 73.2325ZM44.8044 73.217C44.8932 73.2294 44.9835 73.2346 45.0744 73.2325L45.0228 71.0222C45.051 71.0215 45.0799 71.0232 45.1091 71.0272L44.8044 73.217ZM29.5996 66.7706C34.0871 71.258 39.8662 73.5762 45.0317 73.225L44.8818 71.0192C40.4568 71.32 35.2779 69.3221 31.163 65.2072L29.5996 66.7706ZM26.2876 62.6396C27.2028 64.0887 28.3096 65.4805 29.5996 66.7706L31.163 65.2072C29.9878 64.0321 28.984 62.7685 28.1569 61.4589L26.2876 62.6396ZM25.5249 62.4552C25.9304 62.6661 26.3453 62.8671 26.769 63.0575L27.6755 61.041C27.29 60.8677 26.913 60.685 26.5447 60.4936L25.5249 62.4552ZM21.8891 70.6195C23.5279 67.7412 25.2097 64.8836 26.9725 62.0598L25.0971 60.889C23.3142 63.7449 21.6168 66.6293 19.9678 69.5256L21.8891 70.6195ZM20.391 71.4564C20.9841 71.4766 21.5727 71.1753 21.8891 70.6195L19.9678 69.5256C20.0738 69.3394 20.2709 69.2401 20.4665 69.2467L20.391 71.4564ZM20.2195 71.4461C20.3009 71.4556 20.3822 71.459 20.463 71.4565L20.3946 69.2466C20.4216 69.2458 20.4483 69.2469 20.4747 69.25L20.2195 71.4461ZM18.7639 69.6075C18.6581 70.5172 19.3097 71.3403 20.2194 71.4461L20.4748 69.25C20.778 69.2853 20.9952 69.5597 20.96 69.8629L18.7639 69.6075ZM20.3018 58.4348C19.6888 62.1729 19.1953 65.8979 18.7639 69.6075L20.96 69.8629C21.3887 66.1761 21.8778 62.4869 22.4835 58.7925L20.3018 58.4348ZM21.1309 59.6935C21.1554 59.6955 21.1798 59.6987 21.204 59.7029L21.5813 57.5244C21.4939 57.5093 21.4055 57.4979 21.3164 57.4904L21.1309 59.6935ZM14.3049 58.047C16.5758 58.9635 18.8867 59.5045 21.1309 59.6935L21.3165 57.4904C19.2961 57.3202 17.2014 56.8318 15.1323 55.9967L14.3049 58.047ZM13.0808 57.5139C13.4808 57.7012 13.889 57.8791 14.3049 58.047L15.1323 55.9967C14.7536 55.8439 14.3822 55.682 14.0184 55.5116L13.0808 57.5139ZM12.5953 52.9078C13.4095 53.8142 13.3733 55.0551 12.7274 55.7738L14.3718 57.2517C15.8434 55.6143 15.7366 53.0965 14.2401 51.4304L12.5953 52.9078ZM11.5413 52.2213C11.9242 52.3425 12.2922 52.5704 12.5953 52.9078L14.2401 51.4304C13.6707 50.7965 12.964 50.3526 12.2086 50.1134L11.5413 52.2213ZM11.1013 49.2231C11.1013 49.7766 11.0065 50.3064 10.8325 50.7995L12.9174 51.5352C13.1735 50.8096 13.3122 50.0312 13.3122 49.2231H11.1013ZM6.11349 44.3706C8.89174 44.3706 11.1013 46.5665 11.1013 49.2231H13.3122C13.3122 45.2988 10.0657 42.1597 6.11349 42.1597V44.3706ZM3.37103 45.1692C4.15612 44.6653 5.09708 44.3706 6.11349 44.3706V42.1597C4.66384 42.1597 3.30982 42.5813 2.17671 43.3087L3.37103 45.1692ZM2.04876 28.9296C0.608291 34.6771 0.541026 40.2674 1.70761 44.5307L3.84013 43.9472C2.79656 40.1335 2.82172 34.9399 4.19334 29.4671L2.04876 28.9296ZM13.0215 9.71555C7.2244 15.3259 3.7072 22.3125 2.04876 28.9296L4.19334 29.4671C5.76571 23.1934 9.09781 16.5896 14.5591 11.3043L13.0215 9.71555ZM17.5865 9.27076C16.1316 8.31728 14.2423 8.53405 13.0215 9.71555L14.5591 11.3043C15.0568 10.8226 15.8072 10.7481 16.3745 11.1199L17.5865 9.27076ZM22.6262 13.2782C20.854 11.615 19.1128 10.2711 17.5865 9.27076L16.3745 11.1199C17.7909 12.0482 19.4318 13.3123 21.1132 14.8903L22.6262 13.2782ZM23.8398 13.1664C23.5435 13.5501 22.9552 13.587 22.6262 13.2782L21.1132 14.8903C22.4094 16.1068 24.5091 15.9171 25.5897 14.5177L23.8398 13.1664ZM41.7364 0.254078C36.803 1.98011 29.313 6.07864 23.8398 13.1664L25.5897 14.5177C30.7402 7.84775 37.8311 3.96273 42.4666 2.34095L41.7364 0.254078ZM22.3713 67.389C22.7075 64.6955 23.0829 62.0031 23.5192 59.3104L21.3368 58.9567C20.8953 61.6813 20.5162 64.4009 20.1774 67.1152L22.3713 67.389ZM24.1272 60.3549C22.8154 62.4577 21.5507 64.574 20.3183 66.6972L22.2304 67.8071C23.4534 65.7001 24.706 63.6043 26.003 61.5251L24.1272 60.3549ZM21.7374 59.9968C22.5947 60.6827 23.5206 61.3188 24.5081 61.8949L25.6222 59.9852C24.7269 59.4629 23.8904 58.8879 23.1186 58.2704L21.7374 59.9968Z" fill="white" mask="url(#path-1-outside-1_2928_33607)"/>
<path d="M46.5042 20.9782C45.2727 21.6694 43.6675 21.149 43.0977 19.8568C42.1772 17.7693 41.1706 15.9796 40.2346 14.5781C39.7228 13.8119 38.7506 13.5159 37.8906 13.8468C23.8285 19.2563 15.5185 32.7648 15.321 41.1814C15.321 41.1847 15.3233 41.1875 15.3266 41.1881C15.3301 41.1887 15.3325 41.1918 15.3322 41.1953C14.9893 45.7184 17.0171 50.9671 21.1556 55.1057C22.7334 56.6834 24.4725 57.9544 26.2712 58.9042C26.7056 59.1336 27.061 59.4889 27.2904 59.9233C28.2402 61.7222 29.5112 63.4614 31.089 65.0392C35.2275 69.1777 40.4763 71.2055 44.9994 70.8626C45.0029 70.8623 45.006 70.8647 45.0066 70.8682C45.0072 70.8715 45.0099 70.8739 45.0133 70.8738C53.4298 70.6763 66.9384 62.3663 72.3479 48.3042C72.6787 47.4442 72.383 46.4722 71.6168 45.9604C70.2304 45.0345 68.4642 44.0394 66.4055 43.127C65.1956 42.5907 64.6557 41.1382 65.217 39.9396C68.0836 33.8182 69.6829 26.0826 68.421 18.0774C68.2775 17.1672 67.5351 16.473 66.6156 16.4129C61.7547 16.0953 53.7905 16.8887 46.5042 20.9782Z" fill="#EF92EB"/>
<path d="M21.0098 69.14C30.4226 52.6073 41.4041 36.5572 61.3158 24.0068" stroke="#07503E" stroke-width="1.07916" stroke-linecap="round" stroke-linejoin="round"/>
<path fill-rule="evenodd" clip-rule="evenodd" d="M52.493 17.8298C50.5152 18.5036 48.5155 19.3682 46.5634 20.4639C45.3018 21.1719 43.6576 20.6389 43.0739 19.3152C42.1309 17.1769 41.0998 15.3436 40.141 13.9079C39.6168 13.123 38.6209 12.8199 37.7399 13.1587C23.3353 18.7 14.8228 32.5377 14.6205 41.1593C14.6204 41.1627 14.6229 41.1656 14.6262 41.1662C14.6298 41.1668 14.6322 41.17 14.632 41.1736C14.2807 45.8068 16.3579 51.1835 20.5972 55.4228C22.2134 57.039 23.9949 58.3409 25.8375 59.3139C26.2825 59.5488 26.6465 59.9128 26.8814 60.3578C27.5343 61.5944 28.3354 62.8034 29.2802 63.9535C29.9028 64.2755 30.5495 64.5729 31.2186 64.843C36.7782 67.0868 42.539 66.8959 46.6659 64.7607C46.6691 64.759 46.673 64.7601 46.6749 64.7631C46.6768 64.7659 46.6804 64.7671 46.6835 64.7656C54.5394 61.2078 63.946 47.9617 63.4127 32.5372C63.3801 31.5939 62.7119 30.7959 61.7845 30.6204C60.1066 30.3028 58.0428 30.0723 55.7364 30.0368C54.3808 30.0159 53.2899 28.8628 53.339 27.5079C53.4504 24.4268 53.1968 21.1447 52.493 17.8298Z" fill="#07503E"/>
<path d="M52.493 17.8298L52.6732 17.7915L52.6301 17.5885L52.4336 17.6554L52.493 17.8298ZM46.5634 20.4639L46.6535 20.6246L46.5634 20.4639ZM43.0739 19.3152L42.9053 19.3896L43.0739 19.3152ZM40.141 13.9079L39.9878 14.0103V14.0103L40.141 13.9079ZM37.7399 13.1587L37.6738 12.9868V12.9868L37.7399 13.1587ZM14.6205 41.1593L14.4363 41.155V41.155L14.6205 41.1593ZM14.6262 41.1662L14.6588 40.9848L14.6587 40.9848L14.6262 41.1662ZM14.632 41.1736L14.4482 41.1596L14.4482 41.1596L14.632 41.1736ZM20.5972 55.4228L20.7275 55.2925L20.5972 55.4228ZM25.8375 59.3139L25.7514 59.4768H25.7514L25.8375 59.3139ZM26.8814 60.3578L27.0443 60.2718L26.8814 60.3578ZM29.2802 63.9535L29.1379 64.0704L29.1619 64.0997L29.1956 64.1171L29.2802 63.9535ZM31.2186 64.843L31.2876 64.6721L31.2186 64.843ZM46.6659 64.7607L46.7506 64.9243L46.7506 64.9243L46.6659 64.7607ZM46.6749 64.7631L46.8292 64.6624L46.8292 64.6623L46.6749 64.7631ZM46.6835 64.7656L46.6075 64.5978L46.6074 64.5978L46.6835 64.7656ZM63.4127 32.5372L63.5969 32.5308L63.4127 32.5372ZM61.7845 30.6204L61.7503 30.8014L61.7845 30.6204ZM55.7364 30.0368L55.7392 29.8525L55.7364 30.0368ZM53.339 27.5079L53.5231 27.5146L53.339 27.5079ZM52.4336 17.6554C50.4461 18.3324 48.4361 19.2016 46.4732 20.3032L46.6535 20.6246C48.595 19.5349 50.5842 18.6747 52.5524 18.0042L52.4336 17.6554ZM46.4732 20.3032C45.3047 20.959 43.7815 20.4632 43.2425 19.2409L42.9053 19.3896C43.5337 20.8145 45.2989 21.3848 46.6535 20.6246L46.4732 20.3032ZM43.2425 19.2409C42.2953 17.093 41.2591 15.2503 40.2942 13.8056L39.9878 14.0103C40.9405 15.4368 41.9666 17.2607 42.9053 19.3896L43.2425 19.2409ZM40.2942 13.8056C39.7209 12.9472 38.6331 12.6178 37.6738 12.9868L37.8061 13.3307C38.6087 13.022 39.5126 13.2988 39.9878 14.0103L40.2942 13.8056ZM37.6738 12.9868C30.4351 15.7714 24.6791 20.6395 20.7074 25.8928C16.7383 31.1424 14.5386 36.7938 14.4363 41.155L14.8047 41.1636C14.9047 36.9032 17.0623 31.3249 21.0013 26.115C24.9375 20.9088 30.6401 16.0874 37.8061 13.3307L37.6738 12.9868ZM14.4363 41.155C14.434 41.2531 14.5048 41.3316 14.5938 41.3476L14.6587 40.9848C14.7409 40.9995 14.8068 41.0723 14.8047 41.1636L14.4363 41.155ZM14.5937 41.3475C14.505 41.3316 14.4413 41.2511 14.4482 41.1596L14.8157 41.1875C14.8232 41.0889 14.7545 41.002 14.6588 40.9848L14.5937 41.3475ZM14.4482 41.1596C14.0922 45.8553 16.1964 51.2825 20.4669 55.5531L20.7275 55.2925C16.5194 51.0844 14.4691 45.7583 14.8157 41.1875L14.4482 41.1596ZM20.4669 55.5531C22.096 57.1821 23.8923 58.4951 25.7514 59.4768L25.9235 59.1509C24.0975 58.1868 22.3309 56.8959 20.7275 55.2925L20.4669 55.5531ZM25.7514 59.4768C26.1637 59.6945 26.5008 60.0316 26.7185 60.4439L27.0443 60.2718C26.7921 59.794 26.4013 59.4032 25.9235 59.1509L25.7514 59.4768ZM26.7185 60.4439C27.3773 61.6916 28.1853 62.9109 29.1379 64.0704L29.4226 63.8365C28.4855 62.6959 27.6914 61.4972 27.0443 60.2718L26.7185 60.4439ZM29.1956 64.1171C29.8233 64.4418 30.4752 64.7416 31.1497 65.0138L31.2876 64.6721C30.6238 64.4042 29.9824 64.1092 29.3649 63.7898L29.1956 64.1171ZM31.1497 65.0138C36.7502 67.2742 42.5681 67.0883 46.7506 64.9243L46.5812 64.597C42.5099 66.7035 36.8062 66.8994 31.2876 64.6721L31.1497 65.0138ZM46.7506 64.9243C46.6691 64.9665 46.57 64.9393 46.5206 64.8638L46.8292 64.6623C46.7759 64.5808 46.669 64.5516 46.5811 64.5971L46.7506 64.9243ZM46.5206 64.8637C46.57 64.9395 46.6701 64.974 46.7596 64.9334L46.6074 64.5978C46.6907 64.5601 46.7835 64.5924 46.8292 64.6624L46.5206 64.8637ZM46.7595 64.9335C50.7333 63.1338 55.0744 58.8991 58.3538 53.1932C61.6355 47.4833 63.8648 40.282 63.5969 32.5308L63.2286 32.5436C63.4939 40.2169 61.2866 47.3509 58.0343 53.0096C54.7797 58.6723 50.4895 62.8397 46.6075 64.5978L46.7595 64.9335ZM63.5969 32.5308C63.5613 31.5036 62.833 30.6313 61.8188 30.4394L61.7503 30.8014C62.5909 30.9605 63.1989 31.6841 63.2286 32.5436L63.5969 32.5308ZM61.8188 30.4394C60.1302 30.1198 58.0559 29.8882 55.7392 29.8525L55.7336 30.221C58.0297 30.2564 60.0829 30.4859 61.7503 30.8014L61.8188 30.4394ZM55.7392 29.8525C54.4873 29.8333 53.4778 28.7667 53.5231 27.5146L53.1548 27.5012C53.1021 28.9589 54.2743 30.1985 55.7336 30.221L55.7392 29.8525ZM53.5231 27.5146C53.6351 24.4189 53.3803 21.1217 52.6732 17.7915L52.3128 17.8681C53.0134 21.1678 53.2658 24.4348 53.1548 27.5012L53.5231 27.5146Z" fill="#07503E"/>
<path fill-rule="evenodd" clip-rule="evenodd" d="M25.1522 14.1797C24.2681 15.3247 22.5463 15.4771 21.4915 14.4871C19.7874 12.8878 18.1214 11.6038 16.6775 10.6574C15.8881 10.14 14.853 10.2505 14.1747 10.9069C4.04937 20.7061 1.14857 34.9491 3.1445 43.4525C4.03706 43.0126 5.04565 42.7648 6.11343 42.7648C9.76115 42.7648 12.7182 45.6562 12.7182 49.2229C12.7182 49.7724 12.648 50.3059 12.5159 50.8153C12.9979 51.0428 13.4475 51.3714 13.8308 51.7981C15.005 53.1054 15.1971 54.9328 14.4265 56.3009C14.5914 56.372 14.7578 56.4414 14.9255 56.5091C17.045 57.3645 19.1938 57.8661 21.2701 58.041C21.7715 58.0832 22.2489 58.2758 22.6392 58.5935C24.2552 59.9089 26.1503 61.0395 28.2699 61.895C33.8295 64.1388 39.5903 63.9479 43.7172 61.8127C43.7204 61.811 43.7242 61.8121 43.7262 61.815C43.7281 61.8179 43.7317 61.819 43.7348 61.8176C51.5906 58.2598 60.9973 45.0137 60.464 29.5892C60.4314 28.6459 59.7632 27.8479 58.8358 27.6724C57.1578 27.3548 55.0941 27.1243 52.7877 27.0888C51.4321 27.0679 50.3412 25.9148 50.3902 24.5599C50.6406 17.6403 49.0496 9.70664 44.6529 2.66501C44.153 1.86436 43.175 1.50732 42.2841 1.81903C37.5741 3.46688 30.3834 7.40527 25.1522 14.1797Z" fill="#FAD697"/>
<path d="M21.4915 14.4871L21.1132 14.8901L21.4915 14.4871ZM25.1522 14.1797L25.5897 14.5175V14.5175L25.1522 14.1797ZM16.6775 10.6574L16.9805 10.1951H16.9805L16.6775 10.6574ZM14.1747 10.9069L14.5591 11.3041H14.5591L14.1747 10.9069ZM3.1445 43.4525L2.60639 43.5788L2.76526 44.2557L3.38885 43.9483L3.1445 43.4525ZM12.5159 50.8153L11.9809 50.6765L11.866 51.1197L12.28 51.3151L12.5159 50.8153ZM13.8308 51.7981L14.242 51.4288L14.242 51.4288L13.8308 51.7981ZM14.4265 56.3009L13.9449 56.0296L13.6434 56.5651L14.2077 56.8084L14.4265 56.3009ZM14.9255 56.5091L14.7186 57.0216H14.7186L14.9255 56.5091ZM21.2701 58.041L21.2237 58.5917H21.2237L21.2701 58.041ZM22.6392 58.5935L22.9881 58.1648L22.6392 58.5935ZM28.2699 61.895L28.4768 61.3824H28.4768L28.2699 61.895ZM43.7172 61.8127L43.4634 61.3216L43.4632 61.3217L43.7172 61.8127ZM43.7262 61.815L43.2634 62.1173L43.2638 62.1178L43.7262 61.815ZM43.7348 61.8176L43.9626 62.3212L43.9628 62.3211L43.7348 61.8176ZM60.464 29.5892L61.0164 29.5701V29.5701L60.464 29.5892ZM58.8358 27.6724L58.733 28.2155H58.733L58.8358 27.6724ZM52.7877 27.0888L52.7962 26.5361L52.7877 27.0888ZM50.3902 24.5599L50.9426 24.5799L50.3902 24.5599ZM44.6529 2.66501L44.1841 2.95774L44.1841 2.95774L44.6529 2.66501ZM42.2841 1.81903L42.1015 1.29731L42.2841 1.81903ZM21.1132 14.8901C22.4103 16.1075 24.5098 15.9159 25.5897 14.5175L24.7148 13.8419C24.0263 14.7334 22.6823 14.8467 21.8697 14.0841L21.1132 14.8901ZM16.3745 11.1197C17.791 12.048 19.4318 13.3121 21.1132 14.8901L21.8697 14.0841C20.1429 12.4635 18.4519 11.1595 16.9805 10.1951L16.3745 11.1197ZM14.5591 11.3041C15.0564 10.8228 15.8067 10.7476 16.3745 11.1197L16.9805 10.1951C15.9694 9.53248 14.6496 9.67813 13.7903 10.5097L14.5591 11.3041ZM3.6826 43.3262C1.73186 35.0153 4.57125 20.9702 14.5591 11.3041L13.7903 10.5097C3.5275 20.442 0.565286 34.883 2.60639 43.5788L3.6826 43.3262ZM6.11343 42.2121C4.95939 42.2121 3.86734 42.48 2.90014 42.9567L3.38885 43.9483C4.20678 43.5452 5.13191 43.3176 6.11343 43.3176V42.2121ZM13.2709 49.2229C13.2709 45.3393 10.0546 42.2121 6.11343 42.2121V43.3176C9.46765 43.3176 12.1655 45.9731 12.1655 49.2229H13.2709ZM13.0509 50.954C13.1947 50.3998 13.2709 49.8197 13.2709 49.2229H12.1655C12.1655 49.7251 12.1013 50.212 11.9809 50.6765L13.0509 50.954ZM12.28 51.3151C12.696 51.5115 13.0858 51.7959 13.4196 52.1675L14.242 51.4288C13.8091 50.9468 13.2998 50.5741 12.7519 50.3154L12.28 51.3151ZM13.4196 52.1675C14.4442 53.3082 14.5928 54.8793 13.9449 56.0296L14.9081 56.5721C15.8013 54.9863 15.5658 52.9026 14.242 51.4288L13.4196 52.1675ZM15.1323 55.9965C14.9686 55.9305 14.8063 55.8627 14.6454 55.7933L14.2077 56.8084C14.3766 56.8812 14.5469 56.9523 14.7186 57.0216L15.1323 55.9965ZM21.3165 57.4902C19.2961 57.32 17.2014 56.8316 15.1323 55.9965L14.7186 57.0216C16.8886 57.8974 19.0914 58.4121 21.2237 58.5917L21.3165 57.4902ZM22.9881 58.1648C22.5115 57.777 21.9288 57.5417 21.3165 57.4902L21.2237 58.5917C21.6143 58.6246 21.9862 58.7747 22.2902 59.0222L22.9881 58.1648ZM28.4768 61.3824C26.4076 60.5473 24.5606 59.4448 22.9881 58.1648L22.2902 59.0222C23.9499 60.3731 25.8929 61.5317 28.063 62.4075L28.4768 61.3824ZM43.4632 61.3217C39.503 63.3707 33.9135 63.5766 28.4768 61.3824L28.063 62.4075C33.7455 64.7009 39.6776 64.5251 43.9712 62.3036L43.4632 61.3217ZM44.189 61.5128C44.0332 61.2742 43.7204 61.1888 43.4634 61.3216L43.971 62.3037C43.7203 62.4332 43.4153 62.3499 43.2634 62.1173L44.189 61.5128ZM43.5069 61.314C43.763 61.1982 44.048 61.2976 44.1886 61.5123L43.2638 62.1178C43.4081 62.3383 43.7003 62.4399 43.9626 62.3212L43.5069 61.314ZM59.9116 29.6083C60.1742 37.2038 57.989 44.2704 54.7661 49.878C51.5364 55.4975 47.2969 59.5976 43.5068 61.3141L43.9628 62.3211C48.0285 60.4798 52.4203 56.1779 55.7245 50.4288C59.0356 44.6678 61.2871 37.3991 61.0164 29.5701L59.9116 29.6083ZM58.733 28.2155C59.4 28.3417 59.8877 28.9166 59.9116 29.6083L61.0164 29.5701C60.9751 28.3751 60.1265 27.3541 58.9386 27.1293L58.733 28.2155ZM52.7792 27.6414C55.0548 27.6765 57.087 27.9039 58.733 28.2155L58.9386 27.1293C57.2287 26.8057 55.1333 26.5721 52.7962 26.5361L52.7792 27.6414ZM49.8379 24.5399C49.7777 26.2031 51.1126 27.6158 52.7792 27.6414L52.7962 26.5361C51.7516 26.52 50.9047 25.6265 50.9426 24.5799L49.8379 24.5399ZM44.1841 2.95774C48.5144 9.89311 50.0848 17.7146 49.8379 24.5399L50.9426 24.5799C51.1964 17.5661 49.5848 9.52018 45.1218 2.37227L44.1841 2.95774ZM42.4666 2.34075C43.1073 2.11657 43.8175 2.37069 44.1841 2.95774L45.1218 2.37227C44.4885 1.35804 43.2426 0.898072 42.1015 1.29731L42.4666 2.34075ZM25.5897 14.5175C30.7403 7.84754 37.8312 3.96253 42.4666 2.34075L42.1015 1.29731C37.3171 2.97122 30.0266 6.963 24.7148 13.8419L25.5897 14.5175Z" fill="#07503E"/>
<path d="M20.4104 69.7988C22.6616 50.4413 26.5852 30.9104 40.3299 11.1015" stroke="#07503E" stroke-width="1.10545" stroke-linecap="round" stroke-linejoin="round"/>
<path d="M23.8302 48.314L23.3117 48.5056C23.3716 48.6676 23.5036 48.7922 23.6687 48.8427L23.8302 48.314ZM18.9838 40.9103L18.6419 41.3446L18.9838 40.9103ZM15.5872 30.7523L16.1087 30.9356L15.5872 30.7523ZM16.1184 18.78C15.9651 18.5161 15.6268 18.4263 15.3628 18.5796C15.0989 18.733 15.0092 19.0712 15.1625 19.3352L16.1184 18.78ZM32.5845 46.6366L32.9103 47.0831L32.5845 46.6366ZM43.7998 38.6692L43.9869 39.1893L43.7998 38.6692ZM51.9882 33.2149C52.1255 32.9423 52.0159 32.6099 51.7433 32.4726C51.4707 32.3352 51.1383 32.4448 51.001 32.7174L51.9882 33.2149ZM16.133 28.6763L15.5901 28.5727L16.133 28.6763ZM24.3486 48.1225C24.0258 47.2488 23.3952 45.8359 22.5412 44.4C21.6913 42.9709 20.5943 41.4746 19.3257 40.476L18.6419 41.3446C19.7544 42.2204 20.7689 43.5825 21.5911 44.965C22.4092 46.3406 23.0112 47.6923 23.3117 48.5056L24.3486 48.1225ZM19.3257 40.476C16.4854 38.2399 14.8608 34.4837 16.1087 30.9356L15.0658 30.5689C13.6227 34.6723 15.5298 38.8945 18.6419 41.3446L19.3257 40.476ZM23.6687 48.8427C25.3023 49.3416 29.3695 49.6664 32.9103 47.0831L32.2588 46.1901C29.0731 48.5142 25.3916 48.213 23.9916 47.7854L23.6687 48.8427ZM32.9103 47.0831C35.0331 45.5345 36.4401 44.0063 37.9237 42.7136C39.4229 41.4074 41.1173 40.2214 43.9869 39.1893L43.6128 38.1491C40.5941 39.2348 38.7829 40.4989 37.1975 41.8802C35.5966 43.275 34.3401 44.6717 32.2588 46.1901L32.9103 47.0831ZM43.9869 39.1893C48.813 37.4536 51.3144 34.5521 51.9882 33.2149L51.001 32.7174C50.4704 33.7704 48.2078 36.4965 43.6128 38.1491L43.9869 39.1893ZM16.1087 30.9356C16.3446 30.2648 16.5318 29.5353 16.6759 28.7798L15.5901 28.5727C15.4541 29.2855 15.2799 29.9601 15.0658 30.5689L16.1087 30.9356ZM16.6759 28.7798C17.0342 26.9017 17.1321 24.8292 17.0293 23.0315C16.9779 22.1317 16.8757 21.2917 16.7272 20.5726C16.5807 19.8628 16.3818 19.2336 16.1184 18.78L15.1625 19.3352C15.3381 19.6376 15.5075 20.1317 15.6446 20.796C15.7798 21.4509 15.8766 22.2356 15.9257 23.0946C16.024 24.8142 15.9291 26.795 15.5901 28.5727L16.6759 28.7798Z" fill="#07503E"/>
</svg>
